<?xml version="1.0" encoding="UTF-8" standalone="no"?>
<!-- Created with Inkscape (http://www.inkscape.org/) -->

<svg
   width="100mm"
   height="100mm"
   viewBox="0 0 100 99.999998"
   version="1.1"
   id="svg5"
   inkscape:version="1.1.1 (3bf5ae0d25, 2021-09-20)"
   sodipodi:docname="calendario.svg"
   xmlns:inkscape="http://www.inkscape.org/namespaces/inkscape"
   xmlns:sodipodi="http://sodipodi.sourceforge.net/DTD/sodipodi-0.dtd"
   xmlns="http://www.w3.org/2000/svg"
   xmlns:svg="http://www.w3.org/2000/svg">
  <sodipodi:namedview
     id="namedview7"
     pagecolor="#ffffff"
     bordercolor="#666666"
     borderopacity="1.0"
     inkscape:pageshadow="2"
     inkscape:pageopacity="0.0"
     inkscape:pagecheckerboard="0"
     inkscape:document-units="mm"
     showgrid="false"
     fit-margin-top="0"
     fit-margin-left="0"
     fit-margin-right="0"
     fit-margin-bottom="0"
     inkscape:zoom="0.72337262"
     inkscape:cx="396.75265"
     inkscape:cy="230.17183"
     inkscape:window-width="1920"
     inkscape:window-height="1001"
     inkscape:window-x="-9"
     inkscape:window-y="-9"
     inkscape:window-maximized="1"
     inkscape:current-layer="layer1" />
  <defs
     id="defs2" />
  <g
     inkscape:label="Capa 1"
     inkscape:groupmode="layer"
     id="layer1"
     transform="translate(-4.7403e-6,-1.78e-5)">
    <g
       transform="matrix(4.1668403,0,0,4.1668403,-1637.5724,-941.70589)"
       id="g930">
      <path
         d="m 399.376,237.396 c 0.39,0 0.701,0.309 0.701,0.696 0,0.387 -0.311,0.699 -0.701,0.699 h -2.813 c -0.39,0 -0.701,-0.312 -0.701,-0.699 0,-0.387 0.311,-0.696 0.701,-0.696 z m 7.031,0 c 0.389,0 0.701,0.309 0.701,0.696 0,0.387 -0.312,0.699 -0.701,0.699 h -2.814 c -0.389,0 -0.701,-0.312 -0.701,-0.699 0,-0.387 0.312,-0.696 0.701,-0.696 z m 7.03,0 c 0.39,0 0.701,0.309 0.701,0.696 0,0.387 -0.311,0.699 -0.701,0.699 h -2.813 c -0.39,0 -0.701,-0.312 -0.701,-0.699 0,-0.387 0.311,-0.696 0.701,-0.696 z m -14.061,4.187 c 0.39,0 0.701,0.307 0.701,0.695 0,0.387 -0.311,0.7 -0.701,0.7 h -2.813 c -0.39,0 -0.701,-0.313 -0.701,-0.7 0,-0.388 0.311,-0.695 0.701,-0.695 z m 7.031,0 c 0.389,0 0.701,0.307 0.701,0.695 0,0.387 -0.312,0.7 -0.701,0.7 h -2.814 c -0.389,0 -0.701,-0.313 -0.701,-0.7 0,-0.388 0.312,-0.695 0.701,-0.695 z m 7.03,0 c 0.39,0 0.701,0.307 0.701,0.695 0,0.387 -0.311,0.7 -0.701,0.7 h -2.813 c -0.39,0 -0.701,-0.313 -0.701,-0.7 0,-0.388 0.311,-0.695 0.701,-0.695 z m -14.061,4.229 c 0.39,0 0.701,0.313 0.701,0.7 0,0.384 -0.311,0.697 -0.701,0.697 h -2.813 c -0.39,0 -0.701,-0.313 -0.701,-0.697 0,-0.387 0.311,-0.7 0.701,-0.7 z m 7.031,0 c 0.389,0 0.701,0.313 0.701,0.7 0,0.384 -0.312,0.697 -0.701,0.697 h -2.814 c -0.389,0 -0.701,-0.313 -0.701,-0.697 0,-0.387 0.312,-0.7 0.701,-0.7 z m 7.03,0 c 0.39,0 0.701,0.313 0.701,0.7 0,0.384 -0.311,0.697 -0.701,0.697 h -2.813 c -0.39,0 -0.701,-0.313 -0.701,-0.697 0,-0.387 0.311,-0.7 0.701,-0.7 z m -20.436,-9.811 v 11.907 c 0,1.153 0.944,2.091 2.111,2.091 h 19.78 c 1.163,0 2.108,-0.938 2.108,-2.091 v -11.907 z"
         fill="#5f7d95"
         fill-rule="evenodd"
         id="path926" />
      <path
         d="m 397.969,227.491 c 0.391,0 0.706,0.334 0.706,0.747 v 2.984 c 0,0.409 -0.315,0.743 -0.706,0.743 -0.39,0 -0.701,-0.334 -0.701,-0.743 v -2.984 c 0,-0.413 0.311,-0.747 0.701,-0.747 z m 7.032,0 c 0.389,0 0.704,0.334 0.704,0.747 v 2.984 c 0,0.409 -0.315,0.743 -0.704,0.743 -0.391,0 -0.703,-0.334 -0.703,-0.743 v -2.984 c 0,-0.413 0.312,-0.747 0.703,-0.747 z m 7.03,0 c 0.39,0 0.705,0.334 0.705,0.747 v 2.984 c 0,0.409 -0.315,0.743 -0.705,0.743 -0.391,0 -0.702,-0.334 -0.702,-0.743 v -2.984 c 0,-0.413 0.311,-0.747 0.702,-0.747 z M 397.969,226 c -1.166,0 -2.107,1.002 -2.107,2.238 v 0.744 h -0.75 c -1.167,0 -2.111,1.002 -2.111,2.24 v 3.777 H 417 v -3.777 c 0,-1.238 -0.945,-2.24 -2.108,-2.24 h -0.75 v -0.744 c 0,-1.236 -0.945,-2.238 -2.111,-2.238 -1.166,0 -2.108,1.002 -2.108,2.238 v 0.744 h -2.812 v -0.744 c 0,-1.236 -0.945,-2.238 -2.11,-2.238 -1.167,0 -2.109,1.002 -2.109,2.238 v 0.744 h -2.811 v -0.744 c 0,-1.236 -0.946,-2.238 -2.112,-2.238 z"
         fill="#5f7d95"
         fill-rule="evenodd"
         id="path928" />
    </g>
  </g>
</svg>
