<?xml version="1.0" encoding="UTF-8" standalone="no"?>
<!-- Created with Inkscape (http://www.inkscape.org/) -->

<svg
   width="100mm"
   height="112.91415mm"
   viewBox="0 0 100 112.91415"
   version="1.1"
   id="svg5"
   inkscape:version="1.1.1 (3bf5ae0d25, 2021-09-20)"
   sodipodi:docname="catalogo.svg"
   xmlns:inkscape="http://www.inkscape.org/namespaces/inkscape"
   xmlns:sodipodi="http://sodipodi.sourceforge.net/DTD/sodipodi-0.dtd"
   xmlns="http://www.w3.org/2000/svg"
   xmlns:svg="http://www.w3.org/2000/svg">
  <sodipodi:namedview
     id="namedview7"
     pagecolor="#ffffff"
     bordercolor="#666666"
     borderopacity="1.0"
     inkscape:pageshadow="2"
     inkscape:pageopacity="0.0"
     inkscape:pagecheckerboard="0"
     inkscape:document-units="mm"
     showgrid="false"
     fit-margin-top="0"
     fit-margin-left="0"
     fit-margin-right="0"
     fit-margin-bottom="0"
     inkscape:zoom="0.72337262"
     inkscape:cx="396.75265"
     inkscape:cy="379.47248"
     inkscape:window-width="1920"
     inkscape:window-height="1001"
     inkscape:window-x="-9"
     inkscape:window-y="-9"
     inkscape:window-maximized="1"
     inkscape:current-layer="layer1" />
  <defs
     id="defs2" />
  <g
     inkscape:label="Capa 1"
     inkscape:groupmode="layer"
     id="layer1"
     transform="translate(-5.51561e-5,-4.01e-5)">
    <g
       transform="matrix(3.2261187,0,0,3.2261187,-1496.9287,-1042.0363)"
       id="g1082">
      <path
         d="m 481.94,335.003 c -0.537,2.029 -1.968,3.526 -3.937,3.879 v 2.115 h 5.994 v -5.994 z"
         fill="#f28617"
         fill-rule="evenodd"
         id="path1056" />
      <path
         d="m 478.003,335.003 v 1.994 c 0.999,-0.2 1.696,-0.997 1.997,-1.994 z"
         fill="#f28617"
         fill-rule="evenodd"
         id="path1058" />
      <path
         d="m 476.969,329.123 c 2.516,0 4.493,1.644 4.941,4.113 h 3.146 c 0.631,0 1.079,0.455 1.079,1.003 v 8.226 h -0.18 c 0,0.548 -0.448,1.004 -0.99,1.004 h -7.996 c -0.539,0 -0.99,-0.456 -0.99,-1.004 v -3.199 c -2.248,-0.456 -4.045,-2.558 -4.045,-5.027 0,-2.831 2.248,-5.116 5.035,-5.116 z m 4.042,18.369 c 0.631,0 1.078,0.455 1.078,1.003 0,0.548 -0.447,1.007 -1.078,1.007 h -7.908 c -0.63,0 -1.078,-0.459 -1.078,-1.007 0,-0.548 0.448,-1.003 1.078,-1.003 z m 4.045,0 c 0.631,0 1.079,0.455 1.079,1.003 -0.18,0.548 -0.628,1.007 -1.079,1.007 -0.539,0 -0.99,-0.459 -0.99,-1.007 0,-0.548 0.451,-1.003 0.99,-1.003 z m 0,4.11 c 0.631,0 1.079,0.458 1.079,1.006 0,0.548 -0.628,1.004 -1.079,1.004 h -11.953 c -0.63,0 -1.078,-0.456 -1.078,-1.004 0,-0.548 0.448,-1.006 1.078,-1.006 z M 466.99,323 c -0.539,0 -0.987,0.458 -0.987,1.096 v 3.017 h 3.055 c 0.539,0 0.99,0.458 0.99,1.096 0,0.548 -0.451,1.007 -0.99,1.007 h -3.055 v 4.11 h 3.055 c 0.539,0 0.99,0.458 0.99,1.006 0,0.548 -0.451,1.004 -0.99,1.004 h -3.055 v 4.113 h 3.055 c 0.539,0 0.99,0.458 0.99,1.096 0,0.548 -0.451,1.006 -0.99,1.006 h -3.055 v 4.113 h 3.055 c 0.539,0 0.99,0.456 0.99,1.004 0,0.548 -0.451,1.006 -0.99,1.006 h -3.055 v 4.11 h 3.055 c 0.539,0 0.99,0.459 0.99,1.097 0,0.548 -0.451,1.006 -0.99,1.006 h -3.055 v 3.017 c 0,0.638 0.448,1.096 0.987,1.096 h 22.02 c 0.539,0 0.99,-0.458 0.99,-1.096 V 324.189 C 490,323.458 489.549,323 489.01,323 Z"
         fill="#f28617"
         fill-rule="evenodd"
         id="path1060" />
      <path
         d="m 477.048,331.003 c -1.663,0 -3.045,1.382 -3.045,3.136 0,1.385 0.738,2.398 2.029,2.861 v -2.861 c 0,-0.553 0.463,-1.016 1.016,-1.016 H 480 c -0.369,-1.291 -1.57,-2.12 -2.952,-2.12 z"
         fill="#f28617"
         fill-rule="evenodd"
         id="path1062" />
      <path
         d="m 465,327 c -0.634,0 -0.997,0.436 -0.997,1.043 0,0.521 0.363,0.957 0.997,0.957 h 1 v -2 z"
         fill="#f28617"
         fill-rule="evenodd"
         id="path1064" />
      <path
         d="m 465,351 c -0.634,0 -0.997,0.455 -0.997,1 0,0.545 0.363,0.997 0.997,0.997 h 1 V 351 Z"
         fill="#f28617"
         fill-rule="evenodd"
         id="path1066" />
      <path
         d="m 465,345.003 v 0.085 c -0.634,0 -0.997,0.435 -0.997,0.956 0,0.521 0.363,0.953 0.997,0.953 h 1 v -1.994 z"
         fill="#f28617"
         fill-rule="evenodd"
         id="path1068" />
      <path
         d="m 465,339.003 c -0.634,0 -0.997,0.432 -0.997,0.953 0,0.609 0.363,1.041 0.997,1.041 h 1 v -1.994 z"
         fill="#f28617"
         fill-rule="evenodd"
         id="path1070" />
      <path
         d="m 465,333 c -0.634,0 -0.997,0.455 -0.997,1 0,0.545 0.363,0.997 0.997,0.997 h 1 V 333 Z"
         fill="#f28617"
         fill-rule="evenodd"
         id="path1072" />
      <path
         d="m 492,347.003 v 5.994 c 1.697,-0.46 3,-1.66 3,-2.858 v -3.136 z"
         fill="#f28617"
         fill-rule="evenodd"
         id="path1074" />
      <path
         d="M 492,335.003 V 339 h 3 v -3.997 z"
         fill="#f28617"
         fill-rule="evenodd"
         id="path1076" />
      <path
         d="m 492,341 v 4 h 3 v -4 z"
         fill="#f28617"
         fill-rule="evenodd"
         id="path1078" />
      <path
         d="m 492,327.003 v 5.994 h 3 v -3.136 c -0.132,-1.382 -1.303,-2.489 -3,-2.858 z"
         fill="#f28617"
         fill-rule="evenodd"
         id="path1080" />
    </g>
  </g>
</svg>
