<?xml version="1.0" encoding="UTF-8" standalone="no"?>
<!-- Created with Inkscape (http://www.inkscape.org/) -->

<svg
   width="86.513153mm"
   height="38.980263mm"
   viewBox="0 0 86.513153 38.980263"
   version="1.1"
   id="svg5"
   inkscape:version="1.1.1 (3bf5ae0d25, 2021-09-20)"
   sodipodi:docname="container.svg"
   xmlns:inkscape="http://www.inkscape.org/namespaces/inkscape"
   xmlns:sodipodi="http://sodipodi.sourceforge.net/DTD/sodipodi-0.dtd"
   xmlns="http://www.w3.org/2000/svg"
   xmlns:svg="http://www.w3.org/2000/svg">
  <sodipodi:namedview
     id="namedview7"
     pagecolor="#ffffff"
     bordercolor="#ffffff"
     borderopacity="1.0"
     inkscape:pageshadow="2"
     inkscape:pageopacity="0.0"
     inkscape:pagecheckerboard="0"
     inkscape:document-units="mm"
     showgrid="false"
     fit-margin-top="0"
     fit-margin-left="0"
     fit-margin-right="0"
     fit-margin-bottom="0"
     inkscape:zoom="0.72337262"
     inkscape:cx="356.66266"
     inkscape:cy="296.52768"
     inkscape:window-width="1920"
     inkscape:window-height="1001"
     inkscape:window-x="2391"
     inkscape:window-y="-9"
     inkscape:window-maximized="1"
     inkscape:current-layer="layer1" />
  <defs
     id="defs2" />
  <g
     inkscape:label="Capa 1"
     inkscape:groupmode="layer"
     id="layer1"
     transform="translate(-10.599802,-11.623882)">
    <path
       style="fill:#fcdb85;stroke-width:0.164474"
       d="m 10.858261,50.345686 c -0.206073,-0.20607 -0.258459,-0.65611 -0.258459,-2.22039 0,-1.74264 0.03677,-1.99871 0.328947,-2.29089 0.323978,-0.32398 0.328948,-0.54824 0.328948,-14.8453 0,-14.33823 -0.004,-14.51888 -0.328948,-14.72179 -0.299963,-0.18733 -0.328947,-0.38356 -0.328947,-2.22706 0,-1.353088 0.06527,-2.086907 0.197368,-2.219006 0.132936,-0.132936 0.884194,-0.197368 2.301238,-0.197368 1.925744,0 2.121263,0.02785 2.309301,0.328947 0.204474,0.327414 0.383557,0.328947 38.448668,0.328947 38.06512,0 38.2442,-0.0015 38.44868,-0.328947 0.18803,-0.301097 0.38355,-0.328947 2.3093,-0.328947 1.41704,0 2.1683,0.06443 2.30123,0.197368 0.13184,0.13184 0.19737,0.860562 0.19737,2.194906 0,1.78865 -0.0344,2.02866 -0.32894,2.29523 -0.32421,0.2934 -0.32895,0.50657 -0.32895,14.78856 0,14.31274 0.004,14.49339 0.32895,14.69629 0.30026,0.18752 0.32894,0.38356 0.32894,2.24821 0,1.63778 -0.0512,2.09402 -0.25846,2.30124 -0.20589,0.2059 -0.65503,0.25846 -2.20845,0.25846 -1.8841,0 -1.96093,-0.0139 -2.27344,-0.41118 l -0.32344,-0.41119 h -38.25757 c -23.433482,0 -38.257584,0.0592 -38.257584,0.15273 0,0.084 -0.116307,0.26903 -0.258459,0.41118 -0.205899,0.2059 -0.655047,0.25846 -2.208647,0.25846 -1.5536,0 -2.002748,-0.0526 -2.208646,-0.25846 z m 84.774436,-1.55201 c 0,-0.32641 -0.16318,-0.32769 -41.77632,-0.32769 -41.693,0 -41.776312,6.6e-4 -41.776312,0.32957 0,0.32892 0.08268,0.32957 41.776312,0.32769 41.61251,-0.002 41.77632,-0.003 41.77632,-0.32957 z M 15.040592,30.949536 V 13.597566 H 14.54717 14.053749 v 17.35197 17.35198 h 0.493421 0.493422 z m 7.606907,17.14639 c -0.02262,-0.0678 -0.04112,-7.85773 -0.04112,-17.31086 v -17.1875 h -0.493421 -0.493421 v 17.3624 17.36239 l 0.534539,-0.0515 c 0.293997,-0.0284 0.516037,-0.10705 0.493421,-0.1749 z m 7.606908,-17.14639 v -17.26973 l -0.534539,-0.0515 -0.53454,-0.0515 v 17.37281 17.37282 l 0.53454,-0.0515 0.534539,-0.0515 z m 7.56579,0 v -17.26973 l -0.53454,-0.0515 -0.534539,-0.0515 v 17.37281 17.37282 l 0.534539,-0.05162 0.53454,-0.05154 z m 7.56579,0 v -17.26973 l -0.53454,-0.0515 -0.53454,-0.0515 v 17.37281 17.37282 l 0.53454,-0.0515 0.53454,-0.0515 z m 7.48355,0 v -17.35197 h -0.49342 -0.49342 v 17.35197 17.35198 h 0.49342 0.49342 z m 7.56579,0 v -17.35197 h -0.49342 -0.49342 v 17.35197 17.35198 h 0.49342 0.49342 z m 7.57581,0 0.0131,-17.26973 -0.505,-0.0515 -0.50499,-0.0515 v 17.37281 17.37282 l 0.49187,-0.0515 0.49186,-0.0515 0.0131,-17.26974 z m 7.63801,0 v -17.26973 l -0.53454,-0.0515 -0.53454,-0.0515 v 17.37281 17.37282 l 0.53454,-0.0515 0.53454,-0.0515 z m 7.56579,0 v -17.26973 l -0.53454,-0.0515 -0.53454,-0.0515 v 17.37281 17.37282 l 0.53454,-0.0515 0.53454,-0.0515 z m 7.56579,0 v -17.26973 l -0.53454,-0.0515 -0.53454,-0.0515 v 17.37281 17.37282 l 0.53454,-0.0515 0.53454,-0.0515 z"
       id="path836" />
  </g>
</svg>
