<?xml version="1.0" encoding="UTF-8" standalone="no"?>
<!-- Created with Inkscape (http://www.inkscape.org/) -->

<svg
   width="100mm"
   height="99.407501mm"
   viewBox="0 0 100 99.407501"
   version="1.1"
   id="svg5"
   inkscape:version="1.1.1 (3bf5ae0d25, 2021-09-20)"
   sodipodi:docname="editar.svg"
   xmlns:inkscape="http://www.inkscape.org/namespaces/inkscape"
   xmlns:sodipodi="http://sodipodi.sourceforge.net/DTD/sodipodi-0.dtd"
   xmlns="http://www.w3.org/2000/svg"
   xmlns:svg="http://www.w3.org/2000/svg">
  <sodipodi:namedview
     id="namedview7"
     pagecolor="#ffffff"
     bordercolor="#666666"
     borderopacity="1.0"
     inkscape:pageshadow="2"
     inkscape:pageopacity="0.0"
     inkscape:pagecheckerboard="0"
     inkscape:document-units="mm"
     showgrid="false"
     fit-margin-top="0"
     fit-margin-left="0"
     fit-margin-right="0"
     fit-margin-bottom="0"
     inkscape:zoom="0.72337262"
     inkscape:cx="396.75265"
     inkscape:cy="561.95105"
     inkscape:window-width="1920"
     inkscape:window-height="1001"
     inkscape:window-x="-9"
     inkscape:window-y="-9"
     inkscape:window-maximized="1"
     inkscape:current-layer="layer1" />
  <defs
     id="defs2" />
  <g
     inkscape:label="Capa 1"
     inkscape:groupmode="layer"
     id="layer1"
     transform="translate(-3.6232308e-5,-1.83491e-5)">
    <g
       transform="matrix(2.7615497,0,0,2.7615497,-1738.2733,-886.46572)"
       id="g830">
      <path
         d="m 632.932,346 -1.194,6.986 -1.957,2.035 c -0.778,0.809 -0.024,1.979 0.833,1.979 0.264,0 0.543,-0.115 0.783,-0.387 l 1.96,-1.945 6.64,-1.238 z"
         fill="#f28617"
         fill-rule="evenodd"
         id="path824" />
      <path
         d="m 641.735,336.003 -7.732,8.164 8.265,8.83 7.729,-8.26 z"
         fill="#f28617"
         fill-rule="evenodd"
         id="path826" />
      <path
         d="m 651.044,321.003 c -0.919,0 -1.839,0.36 -2.484,1.081 l -6.708,6.49 c -0.849,0.901 -0.015,2.068 0.919,2.068 0.283,0 0.572,-0.106 0.826,-0.354 l 6.711,-6.581 c 0.231,-0.226 0.528,-0.338 0.829,-0.338 0.298,0 0.595,0.112 0.826,0.338 l 1.287,1.262 -9.837,9.645 8.459,8.383 11.949,-11.717 c 4.179,-4.097 0.604,-10.157 -4.169,-10.157 -1.529,0 -3.184,0.624 -4.748,2.135 -1.287,-1.174 -2.112,-2.255 -3.86,-2.255 z"
         fill="#f28617"
         fill-rule="evenodd"
         id="path828" />
    </g>
  </g>
</svg>
