<?xml version="1.0" encoding="UTF-8" standalone="no"?>
<!-- Created with Inkscape (http://www.inkscape.org/) -->

<svg
   width="100mm"
   height="104.16684mm"
   viewBox="0 0 100 104.16684"
   version="1.1"
   id="svg5"
   inkscape:version="1.1.1 (3bf5ae0d25, 2021-09-20)"
   sodipodi:docname="info_logo.svg"
   xmlns:inkscape="http://www.inkscape.org/namespaces/inkscape"
   xmlns:sodipodi="http://sodipodi.sourceforge.net/DTD/sodipodi-0.dtd"
   xmlns="http://www.w3.org/2000/svg"
   xmlns:svg="http://www.w3.org/2000/svg">
  <sodipodi:namedview
     id="namedview7"
     pagecolor="#ffffff"
     bordercolor="#666666"
     borderopacity="1.0"
     inkscape:pageshadow="2"
     inkscape:pageopacity="0.0"
     inkscape:pagecheckerboard="0"
     inkscape:document-units="mm"
     showgrid="false"
     fit-margin-top="0"
     fit-margin-left="0"
     fit-margin-right="0"
     fit-margin-bottom="0"
     inkscape:zoom="0.72337262"
     inkscape:cx="396.75265"
     inkscape:cy="119.57876"
     inkscape:window-width="1920"
     inkscape:window-height="1001"
     inkscape:window-x="2391"
     inkscape:window-y="-9"
     inkscape:window-maximized="1"
     inkscape:current-layer="layer1" />
  <defs
     id="defs2" />
  <g
     inkscape:label="Capa 1"
     inkscape:groupmode="layer"
     id="layer1"
     transform="translate(2.75597e-5,3.99597e-5)">
    <g
       transform="matrix(4.1668403,0,0,4.1668403,-3133.4681,-1850.0813)"
       id="g830">
      <path
         d="m 773.892,445.466 c 0.387,0 0.702,0.327 0.702,0.733 v 20.606 c 0,0.402 -0.315,0.731 -0.702,0.731 h -19.781 c -0.39,0 -0.704,-0.329 -0.704,-0.731 v -20.606 c 0,-0.406 0.314,-0.733 0.704,-0.733 z m -19.781,-1.465 c -1.166,0 -2.11,0.983 -2.11,2.198 v 20.606 c 0,1.211 0.944,2.195 2.11,2.195 h 19.781 c 1.163,0 2.108,-0.984 2.108,-2.195 v -20.606 c 0,-1.215 -0.945,-2.198 -2.108,-2.198 z"
         fill="#fff"
         fill-rule="evenodd"
         id="path824" />
      <path
         d="m 763.924,450.335 c 0.571,0 0.858,0.714 0.454,1.137 -0.132,0.135 -0.291,0.196 -0.449,0.196 -0.331,0 -0.645,-0.267 -0.645,-0.668 0,-0.369 0.284,-0.665 0.64,-0.665 z m 0,-1.335 c -0.249,0 -0.498,0.049 -0.736,0.152 -0.718,0.309 -1.187,1.037 -1.187,1.848 0,1.105 0.859,1.996 1.923,2 0.779,0 1.48,-0.491 1.778,-1.236 0.298,-0.746 0.134,-1.606 -0.417,-2.178 -0.369,-0.382 -0.861,-0.586 -1.361,-0.586 z"
         fill="#fff"
         fill-rule="evenodd"
         id="path826" />
      <path
         d="m 764.202,455.429 v 7.143 h -1.4 v -7.143 z m -3.503,-1.428 c -0.389,0 -0.698,0.316 -0.698,0.712 0,0.396 0.309,0.716 0.698,0.716 h 0.702 v 7.143 h -0.702 c -0.389,0 -0.698,0.315 -0.698,0.711 0,0.397 0.309,0.717 0.698,0.717 h 5.602 c 0.389,0 0.699,-0.32 0.699,-0.717 0,-0.396 -0.31,-0.711 -0.699,-0.711 h -0.698 v -7.859 c 0,-0.396 -0.314,-0.712 -0.702,-0.712 z"
         fill="#fff"
         fill-rule="evenodd"
         id="path828" />
    </g>
  </g>
</svg>
