<?xml version="1.0" encoding="UTF-8" standalone="no"?>
<!-- Created with Inkscape (http://www.inkscape.org/) -->

<svg
   width="100mm"
   height="133.36667mm"
   viewBox="0 0 100 133.36667"
   version="1.1"
   id="svg5"
   inkscape:version="1.1.1 (3bf5ae0d25, 2021-09-20)"
   sodipodi:docname="inventario.svg"
   xmlns:inkscape="http://www.inkscape.org/namespaces/inkscape"
   xmlns:sodipodi="http://sodipodi.sourceforge.net/DTD/sodipodi-0.dtd"
   xmlns="http://www.w3.org/2000/svg"
   xmlns:svg="http://www.w3.org/2000/svg">
  <sodipodi:namedview
     id="namedview7"
     pagecolor="#ffffff"
     bordercolor="#666666"
     borderopacity="1.0"
     inkscape:pageshadow="2"
     inkscape:pageopacity="0.0"
     inkscape:pagecheckerboard="0"
     inkscape:document-units="mm"
     showgrid="false"
     fit-margin-top="0"
     fit-margin-left="0"
     fit-margin-right="0"
     fit-margin-bottom="0"
     inkscape:zoom="0.72337262"
     inkscape:cx="396.75265"
     inkscape:cy="379.47248"
     inkscape:window-width="1920"
     inkscape:window-height="1001"
     inkscape:window-x="-9"
     inkscape:window-y="-9"
     inkscape:window-maximized="1"
     inkscape:current-layer="layer1" />
  <defs
     id="defs2" />
  <g
     inkscape:label="Capa 1"
     inkscape:groupmode="layer"
     id="layer1"
     transform="translate(1.94742e-5,-4.98e-5)">
    <g
       transform="matrix(4.1677086,0,0,4.1677086,-2121.3762,-1429.524)"
       id="g828">
      <path
         d="m 524.83,344.817 c 1.191,0 1.191,1.815 0,1.815 h -7.403 c -1.278,0 -1.278,-1.815 0,-1.815 z m 3.657,7.698 c 1.107,0 1.107,1.814 0,1.814 H 521 c -1.191,0 -1.278,-1.814 0,-1.814 z m -11.112,-1.842 c 0.7,0 1.3,0.917 0.646,1.581 l -1.191,1.21 1.191,1.211 c 0.654,0.664 0.054,1.584 -0.646,1.584 -0.21,0 -0.432,-0.085 -0.629,-0.286 l -1.191,-1.21 -1.107,1.21 c -0.198,0.201 -0.419,0.286 -0.63,0.286 -0.699,0 -1.299,-0.92 -0.645,-1.584 l 1.105,-1.211 -1.105,-1.21 c -0.654,-0.664 -0.054,-1.581 0.645,-1.581 0.211,0 0.432,0.082 0.63,0.285 l 1.107,1.211 1.191,-1.211 c 0.197,-0.203 0.419,-0.285 0.629,-0.285 z m 11.185,9.363 c 1.034,0 1.01,1.818 -0.073,1.818 H 521 c -1.191,0 -1.278,-1.815 0,-1.815 h 7.487 c 0.027,-0.003 0.048,-0.003 0.073,-0.003 z m -11.185,-1.927 c 0.7,0 1.3,0.92 0.646,1.584 l -1.191,1.211 1.191,1.21 c 0.654,0.665 0.054,1.582 -0.646,1.582 -0.21,0 -0.432,-0.083 -0.629,-0.286 l -1.191,-1.211 -1.107,1.211 c -0.198,0.203 -0.419,0.286 -0.63,0.286 -0.699,0 -1.299,-0.917 -0.645,-1.582 l 1.105,-1.21 -1.105,-1.211 c -0.654,-0.664 -0.054,-1.584 0.645,-1.584 0.211,0 0.432,0.085 0.63,0.286 l 1.107,1.21 1.191,-1.21 c 0.197,-0.201 0.419,-0.286 0.629,-0.286 z m 11.112,9.367 c 1.107,0 1.107,1.902 0,1.902 H 521 c -1.191,0 -1.278,-1.902 0,-1.902 z m -13.018,-1.818 c 1.531,0 2.809,1.299 2.809,2.77 0,1.557 -1.192,2.852 -2.809,2.852 -1.445,0 -2.723,-1.295 -2.723,-2.852 0,-1.471 1.278,-2.77 2.723,-2.77 z M 517.257,343 c -1.108,0 -2.212,0.692 -2.553,1.817 h -2.979 c -1.447,0 -2.722,1.296 -2.722,2.767 v 24.561 c 0,1.471 1.275,2.855 2.722,2.855 h 18.55 c 1.447,0 2.722,-1.298 2.722,-2.855 v -24.561 c 0,-1.471 -1.104,-2.767 -2.722,-2.767 h -2.979 C 526.872,343.692 525.935,343 524.743,343 Z"
         fill="#f28617"
         fill-rule="evenodd"
         id="path824" />
      <path
         d="m 515,368 c -0.545,0 -0.997,0.218 -0.997,0.479 0,0.303 0.452,0.521 0.997,0.521 0.545,0 1,-0.218 1,-0.521 0,-0.261 -0.455,-0.479 -1,-0.479 z"
         fill="#f28617"
         fill-rule="evenodd"
         id="path826" />
    </g>
  </g>
</svg>
