<?xml version="1.0" encoding="UTF-8" standalone="no"?>
<!-- Created with Inkscape (http://www.inkscape.org/) -->

<svg
   width="100mm"
   height="128.82448mm"
   viewBox="0 0 100 128.82448"
   version="1.1"
   id="svg5"
   inkscape:version="1.1.1 (3bf5ae0d25, 2021-09-20)"
   sodipodi:docname="inventoryBlack.svg"
   xmlns:inkscape="http://www.inkscape.org/namespaces/inkscape"
   xmlns:sodipodi="http://sodipodi.sourceforge.net/DTD/sodipodi-0.dtd"
   xmlns="http://www.w3.org/2000/svg"
   xmlns:svg="http://www.w3.org/2000/svg">
  <sodipodi:namedview
     id="namedview7"
     pagecolor="#ffffff"
     bordercolor="#666666"
     borderopacity="1.0"
     inkscape:pageshadow="2"
     inkscape:pageopacity="0.0"
     inkscape:pagecheckerboard="0"
     inkscape:document-units="mm"
     showgrid="false"
     fit-margin-top="0"
     fit-margin-left="0"
     fit-margin-right="0"
     fit-margin-bottom="0"
     inkscape:zoom="0.72337262"
     inkscape:cx="396.75265"
     inkscape:cy="119.57876"
     inkscape:window-width="1920"
     inkscape:window-height="1001"
     inkscape:window-x="2391"
     inkscape:window-y="-9"
     inkscape:window-maximized="1"
     inkscape:current-layer="layer1" />
  <defs
     id="defs2" />
  <g
     inkscape:label="Capa 1"
     inkscape:groupmode="layer"
     id="layer1"
     transform="translate(-1.76272e-5)">
    <g
       transform="matrix(4.0261424,0,0,4.0261424,-2045.2924,-688.48242)"
       id="g838"
       style="fill:#f28617">
      <path
         d="m 514.955,195.641 c 0.553,0 1.013,0.389 1.013,0.858 0,0.468 -0.554,0.86 -1.013,0.86 -0.554,0 -1.017,-0.392 -1.017,-0.86 0,-0.469 0.463,-0.858 1.017,-0.858 z m 0,-1.641 c -1.57,0 -2.955,1.093 -2.955,2.499 0,1.405 1.385,2.499 2.955,2.499 1.66,0 3.042,-1.094 3.042,-2.499 0,-1.406 -1.382,-2.499 -3.042,-2.499 z"
         fill="#5f7d95"
         fill-rule="evenodd"
         id="path824"
         style="fill:#f28617" />
      <path
         d="m 513.004,179.003 c -0.266,0 -0.541,0.078 -0.726,0.236 -0.278,0.239 -0.278,0.874 0,1.11 l 1.292,1.111 -1.292,1.11 c -0.278,0.317 -0.278,0.874 0,1.191 0.185,0.158 0.46,0.239 0.726,0.239 0.267,0 0.519,-0.081 0.659,-0.239 l 1.292,-1.11 1.291,1.11 c 0.184,0.158 0.436,0.239 0.691,0.239 0.255,0 0.507,-0.081 0.691,-0.239 0.369,-0.317 0.369,-0.874 0,-1.191 l -1.291,-1.11 1.291,-1.111 c 0.369,-0.236 0.369,-0.871 0,-1.11 -0.184,-0.158 -0.436,-0.236 -0.691,-0.236 -0.255,0 -0.507,0.078 -0.691,0.236 l -1.291,1.032 -1.292,-1.032 c -0.14,-0.158 -0.392,-0.236 -0.659,-0.236 z"
         fill="#5f7d95"
         fill-rule="evenodd"
         id="path826"
         style="fill:#f28617" />
      <path
         d="m 513.004,186.003 c -0.266,0 -0.541,0.094 -0.726,0.284 -0.278,0.381 -0.278,1.048 0,1.429 l 1.292,1.332 -1.292,1.236 c -0.278,0.381 -0.278,1.142 0,1.429 0.185,0.19 0.46,0.284 0.726,0.284 0.267,0 0.519,-0.094 0.659,-0.284 l 1.292,-1.239 1.291,1.239 c 0.184,0.19 0.436,0.284 0.691,0.284 0.255,0 0.507,-0.094 0.691,-0.284 0.369,-0.287 0.369,-1.048 0,-1.429 l -1.291,-1.236 1.291,-1.332 c 0.369,-0.477 0.369,-1.048 0,-1.429 -0.184,-0.19 -0.436,-0.284 -0.691,-0.284 -0.255,0 -0.507,0.094 -0.691,0.284 l -1.291,1.332 -1.292,-1.332 c -0.14,-0.19 -0.392,-0.284 -0.659,-0.284 z"
         fill="#5f7d95"
         fill-rule="evenodd"
         id="path828"
         style="fill:#f28617" />
      <path
         d="m 524.492,172.905 c 0.526,0 0.963,0.431 0.963,0.95 0,0.518 -0.437,0.952 -0.963,0.952 h -7.72 c -0.526,0 -0.963,-0.434 -0.963,-0.952 0,-0.519 0.437,-0.95 0.963,-0.95 z m 5.874,1.817 c 0.616,0 1.056,0.431 1.056,0.95 v 24.558 h -0.351 c 0,0.519 -0.44,0.953 -0.966,0.953 h -19.034 c -0.526,0 -0.964,-0.434 -0.964,-0.953 v -24.558 c 0,-0.519 0.438,-0.95 0.964,-0.95 h 3.07 c 0.44,1.038 1.493,1.814 2.807,1.814 h 7.63 c 1.228,0 2.281,-0.776 2.72,-1.814 z m -13.68,-3.719 c -1.228,0 -2.28,0.777 -2.72,1.902 h -3.071 c -1.578,0 -2.892,1.296 -2.892,2.767 v 24.558 c 0,1.472 1.314,2.77 2.892,2.77 h 19.034 c 1.579,0 2.896,-1.298 2.896,-2.77 v -24.558 c 0.175,-1.471 -1.142,-2.767 -2.634,-2.767 h -3.068 c -0.44,-1.125 -1.403,-1.902 -2.72,-1.902 z"
         fill="#5f7d95"
         fill-rule="evenodd"
         id="path830"
         style="fill:#f28617" />
      <path
         d="m 520.901,181 c -0.491,0 -0.901,0.436 -0.901,1.043 0,0.521 0.41,0.957 0.901,0.957 h 7.117 c 0.572,0 0.982,-0.436 0.982,-0.957 0,-0.607 -0.41,-1.043 -0.982,-1.043 z"
         fill="#5f7d95"
         fill-rule="evenodd"
         id="path832"
         style="fill:#f28617" />
      <path
         d="m 520.901,188 c -0.491,0 -0.901,0.455 -0.901,1 0,0.545 0.41,0.997 0.901,0.997 h 7.117 c 0.572,0 0.982,-0.452 0.982,-0.997 0,-0.545 -0.41,-1 -0.982,-1 z"
         fill="#5f7d95"
         fill-rule="evenodd"
         id="path834"
         style="fill:#f28617" />
      <path
         d="m 520.901,196 c -0.491,0 -0.901,0.436 -0.901,0.957 0,0.607 0.41,1.043 0.901,1.043 h 7.117 c 0.572,0 0.982,-0.436 0.982,-1.043 0,-0.521 -0.41,-0.957 -0.982,-0.957 z"
         fill="#5f7d95"
         fill-rule="evenodd"
         id="path836"
         style="fill:#f28617" />
    </g>
  </g>
</svg>
