<?xml version="1.0" encoding="UTF-8" standalone="no"?>
<!-- Created with Inkscape (http://www.inkscape.org/) -->

<svg
   width="81.452225mm"
   height="49.760029mm"
   viewBox="0 0 81.452225 49.760029"
   version="1.1"
   id="svg5"
   inkscape:version="1.1.1 (3bf5ae0d25, 2021-09-20)"
   sodipodi:docname="main_logo.svg"
   xmlns:inkscape="http://www.inkscape.org/namespaces/inkscape"
   xmlns:sodipodi="http://sodipodi.sourceforge.net/DTD/sodipodi-0.dtd"
   xmlns="http://www.w3.org/2000/svg"
   xmlns:svg="http://www.w3.org/2000/svg">
  <sodipodi:namedview
     id="namedview7"
     pagecolor="#ffffff"
     bordercolor="#666666"
     borderopacity="1.0"
     inkscape:pageshadow="2"
     inkscape:pageopacity="0.0"
     inkscape:pagecheckerboard="0"
     inkscape:document-units="mm"
     showgrid="false"
     fit-margin-top="0"
     fit-margin-left="0"
     fit-margin-right="0"
     fit-margin-bottom="0"
     inkscape:zoom="0.72337262"
     inkscape:cx="346.98576"
     inkscape:cy="306.20457"
     inkscape:window-width="2400"
     inkscape:window-height="1271"
     inkscape:window-x="-9"
     inkscape:window-y="-9"
     inkscape:window-maximized="1"
     inkscape:current-layer="layer1" />
  <defs
     id="defs2" />
  <g
     inkscape:label="Capa 1"
     inkscape:groupmode="layer"
     id="layer1"
     transform="translate(-13.078402,-9.1758168)">
    <path
       style="fill:#f28617;stroke-width:0.078125"
       d="m 69.300103,58.830597 c -0.45816,-0.14862 -0.69487,-0.30928 -1.14545,-0.77746 l -0.38579,-0.40087 -25.77485,-0.0148 c -14.176173,-0.008 -25.795395,-0.0353 -25.820498,-0.0604 -0.0781,-0.0781 0.15689,-0.25444 0.76537,-0.57437 0.322266,-0.16945 0.867188,-0.45811 1.210938,-0.64147 0.34375,-0.18335 0.800781,-0.42097 1.015625,-0.52803 1.206194,-0.60107 3.338607,-1.83197 3.563775,-2.05714 0.07637,-0.0764 0.237402,-0.19075 0.357851,-0.25419 0.415567,-0.21887 1.442016,-1.37694 2.917312,-3.29141 0.516615,-0.6704 1.182342,-2.00714 1.673041,-3.35937 0.202703,-0.5586 0.396235,-1.06952 0.430071,-1.13538 0.03383,-0.0659 0.08804,-0.24049 0.12045,-0.38806 0.03241,-0.14757 0.08739,-0.3222 0.122183,-0.38806 0.03479,-0.0659 0.136699,-0.41858 0.226467,-0.78381 0.08977,-0.36524 0.232968,-0.91016 0.318225,-1.21094 0.08526,-0.30078 0.189707,-0.79297 0.23211,-1.09375 0.0424,-0.30078 0.132671,-0.86328 0.200595,-1.25 0.07337,-0.41773 0.138602,-1.36906 0.160707,-2.34375 0.03284,-1.44818 0.01754,-1.74601 -0.130479,-2.53906 -0.09223,-0.49415 -0.194109,-1.14454 -0.226403,-1.44532 -0.06069,-0.56525 -0.276353,-1.58348 -0.402048,-1.89821 -0.03942,-0.0987 -0.07167,-0.25747 -0.07167,-0.35282 0,-0.20143 -0.576477,-2.49676 -0.896434,-3.56928 -0.0705,-0.23633 -0.170107,-0.58748 -0.221344,-0.78034 -0.05236,-0.1971 -0.145161,-0.3606 -0.211906,-0.37337 -0.06531,-0.0125 -0.415441,0.27536 -0.778068,0.63966 -0.552956,0.5555 -0.754364,0.70224 -1.248442,0.90957 -0.324015,0.13596 -0.729743,0.31189 -0.901619,0.39094 -0.171875,0.079 -0.488281,0.21193 -0.703125,0.29527 -0.214843,0.0833 -0.592773,0.24319 -0.839843,0.35521 -1.156596,0.52441 -1.315929,0.59431 -1.35481,0.59431 -0.02287,0 -0.235772,0.0919 -0.473113,0.20414 -0.237341,0.11228 -0.604305,0.25291 -0.815475,0.3125 -0.21117,0.0596 -0.568516,0.16402 -0.794102,0.23204 -0.452459,0.13645 -0.929965,0.26815 -1.699219,0.46868 -0.737777,0.19232 -1.572026,0.4249 -1.796875,0.50095 -0.107422,0.0363 -0.388672,0.12056 -0.625,0.18718 -0.236328,0.0666 -0.670695,0.19247 -0.965261,0.27969 -0.839086,0.24843 -0.889823,0.23085 -0.999478,-0.34639 -0.03295,-0.17345 -0.102006,-0.52629 -0.153461,-0.78411 -0.158554,-0.79443 -0.142624,-0.92132 0.126013,-1.00369 0.128906,-0.0395 0.304687,-0.0996 0.390625,-0.13353 0.144013,-0.0568 1.560138,-0.49904 2.773437,-0.86605 0.279297,-0.0845 0.568859,-0.18687 0.643471,-0.22751 0.07461,-0.0406 0.197659,-0.0754 0.273438,-0.0772 0.07578,-0.002 0.383872,-0.0909 0.684654,-0.19796 0.300781,-0.10706 0.757812,-0.26392 1.015625,-0.34859 0.257812,-0.0847 0.539062,-0.18792 0.624999,-0.22945 0.08594,-0.0415 0.384766,-0.14994 0.664063,-0.24091 0.279297,-0.091 0.613281,-0.21104 0.742187,-0.2668 0.128907,-0.0558 0.515625,-0.19809 0.859375,-0.31629 0.34375,-0.1182 0.658399,-0.24526 0.699219,-0.28236 0.04082,-0.0371 0.128711,-0.0686 0.195313,-0.0701 0.0666,-0.002 0.261718,-0.0706 0.433593,-0.1536 0.171875,-0.083 0.354792,-0.15214 0.406481,-0.1536 0.185421,-0.005 0.491957,-0.18604 0.491957,-0.29018 0,-0.0584 -0.08789,-0.24543 -0.195313,-0.4156 -0.107421,-0.17016 -0.195312,-0.3278 -0.195312,-0.3503 0,-0.0225 -0.154188,-0.36598 -0.342639,-0.76328 -0.794522,-1.67502 -0.829236,-1.76502 -0.829236,-2.14979 0,-0.51895 0.247216,-0.74802 1.289062,-1.19445 0.214844,-0.0921 0.72461,-0.3249 1.132813,-0.51742 0.408203,-0.19253 0.917969,-0.433 1.132812,-0.53438 0.851654,-0.40187 1.217932,-0.51688 1.469909,-0.46154 0.403706,0.0887 0.568292,0.24591 0.835599,0.79827 0.13959,0.28845 0.337135,0.69434 0.438989,0.90197 0.101855,0.20763 0.185191,0.42736 0.185191,0.48828 0,0.0609 0.03516,0.11077 0.07813,0.11077 0.04297,0 0.07813,0.0396 0.07813,0.0881 0,0.19783 0.497465,1.0838 0.608548,1.0838 0.06509,0 0.262414,-0.10792 0.438494,-0.23982 0.17608,-0.1319 0.742021,-0.5414 1.257646,-0.91 0.51563,-0.3686 1.20779,-0.8847 1.53813,-1.1469 0.33035,-0.26219 0.71556,-0.5646 0.85601,-0.67203 0.14046,-0.10742 0.52057,-0.41864 0.84468,-0.69161 0.32412,-0.27296 0.72318,-0.60695 0.8868,-0.74219 1.67005,-1.38032 5.2607,-4.93584 6.44738,-6.38431 0.11454,-0.1398 0.31372,-0.36784 0.44262,-0.50675 0.41183,-0.44378 0.9902,-1.14162 1.52344,-1.83814 0.10742,-0.14031 0.23092,-0.29288 0.27444,-0.33902 0.0435,-0.0461 0.26628,-0.3212202 0.49501,-0.6112602 0.22872,-0.29003 0.46182,-0.52734 0.51797,-0.52734 0.15953,0 0.19966,0.19168 0.27742,1.3253202 0.10462,1.52509 0.22233,2.97294 0.31465,3.86999 0.0442,0.42969 0.11474,1.34375 0.1567,2.03125 0.11505,1.88484 0.50134,6.83381 0.57626,7.38282 0.0205,0.15039 0.0752,0.9414 0.12157,1.75781 0.11909,2.09827 0.0823,1.9622 0.54751,2.02391 0.2717,0.036 0.41229,0.0977 0.47039,0.20625 0.0905,0.16901 0.0232,0.69953 -0.0887,0.69953 -0.0382,0 -0.0694,0.0346 -0.0694,0.0769 0,0.0423 -0.0998,0.28292 -0.2218,0.53475 l -0.22179,0.45787 v 4.50431 c 0,2.54512 0.0299,4.50431 0.0688,4.50431 0.0379,0 0.33981,-0.23365 0.67101,-0.51922 0.3312,-0.28558 0.70841,-0.61077 0.83824,-0.72266 0.12982,-0.11189 0.44623,-0.37656 0.70312,-0.58817 0.25689,-0.2116 0.50224,-0.42295 0.5452,-0.46967 0.043,-0.0467 0.28907,-0.26026 0.54688,-0.47454 0.25781,-0.21428 0.81941,-0.68848 1.24799,-1.05377 0.42859,-0.36528 0.86458,-0.73447 0.96888,-0.82041 0.1043,-0.0859 0.28098,-0.2389 0.39263,-0.33993 0.11165,-0.10103 0.35841,-0.31197 0.54836,-0.46875 0.18995,-0.15679 0.50251,-0.41933 0.69459,-0.58344 0.63578,-0.5432 0.60697,-0.53465 1.34719,-0.39975 0.36285,0.0661 1.02887,0.17458 1.48005,0.241 0.45117,0.0664 0.97851,0.14827 1.17187,0.18188 0.19336,0.0336 0.84375,0.13588 1.44531,0.22725 0.60157,0.0914 1.27112,0.1947 1.48791,0.22959 0.21678,0.0349 0.43651,0.0493 0.48828,0.0321 0.0685,-0.0228 0.0942,-0.39619 0.0946,-1.37252 4.7e-4,-1.51719 0.0532,-1.7966 0.41065,-2.17511 0.53042,-0.56176 1.40575,-0.56406 1.99866,-0.005 l 0.28557,0.26914 0.0391,1.79604 c 0.0458,2.10506 0.017,2.038 0.91499,2.12961 0.29167,0.0298 0.65337,0.0849 0.80376,0.1225 0.15039,0.0376 0.66015,0.12466 1.13281,0.19342 1.33269,0.19388 2.3103,0.34953 2.69531,0.42914 0.19336,0.04 0.59628,0.0966 0.89537,0.1258 0.29909,0.0292 0.65944,0.10142 0.80078,0.16048 l 0.25698,0.10742 v 0.73965 0.73965 l 0.21485,0.0476 c 0.11816,0.0262 0.32031,0.0771 0.44922,0.11327 0.1289,0.0361 0.41894,0.089 0.64453,0.11751 l 0.41015,0.0518 v -1.83819 c 0,-1.04576 0.0339,-1.92745 0.0787,-2.04525 0.13377,-0.35184 0.6749,-0.79445 1.02943,-0.842 0.56171,-0.0753 0.85529,0.0187 1.2356,0.39596 l 0.35156,0.34872 0.0229,2.31117 c 0.016,1.61513 0.0504,2.34425 0.11406,2.42098 0.0501,0.0604 0.27277,0.19013 0.49479,0.28832 0.91509,0.4047 1.82915,1.12333 1.82915,1.43807 0,0.086 0.031,0.23721 0.0689,0.33591 0.0379,0.0987 0.13214,0.45376 0.20941,0.78903 0.0773,0.33526 0.1781,0.63409 0.22405,0.66406 0.0866,0.0565 0.21726,0.0694 2.81794,0.27964 2.28214,0.18447 3.06363,0.26932 3.22011,0.34963 0.0766,0.0393 0.33015,0.15458 0.56346,0.25616 0.58204,0.25341 1.46347,1.12983 1.75718,1.74719 0.12265,0.25781 0.25692,0.53557 0.29837,0.61725 0.0414,0.0817 0.0919,0.50355 0.11218,0.9375 0.0429,0.91899 0.11225,1.10036 0.4892,1.27923 0.15265,0.0724 0.55626,0.40486 0.8969,0.73871 l 0.61935,0.60699 h 0.69473 c 0.67846,0 0.91242,0.0606 1.14937,0.29751 0.28189,0.28189 0.31633,0.48747 0.31633,1.888 v 1.38639 l 0.52102,0.46015 c 0.28655,0.25308 0.64691,0.57358 0.80078,0.71223 0.15387,0.13866 0.30523,0.25291 0.33635,0.25391 0.0311,0.001 0.11023,0.10554 0.17578,0.23231 0.1784,0.34498 0.1763,4.26259 -0.002,4.51774 -0.11647,0.16628 -0.17115,0.17364 -1.29127,0.17364 h -1.16966 l -0.38446,0.41308 c -0.70308,0.75542 -1.32919,0.95006 -2.9024,0.90227 -0.843,-0.0256 -1.02292,-0.0556 -1.40778,-0.2347 -0.42211,-0.19643 -1.02284,-0.70732 -1.09846,-0.93417 -0.03,-0.09 -1.05571,-0.10742 -6.30883,-0.10742 h -6.27306 l -0.12671,0.1952 c -0.19849,0.30577 -0.62572,0.67087 -1.01788,0.86987 -0.3233,0.16406 -0.47877,0.18405 -1.56978,0.20186 -0.86705,0.0142 -1.30581,-0.011 -1.54503,-0.0886 z m 1.85306,-1.25414 c 0.40564,-0.20976 0.8546,-0.95052 1.16599,-1.92384 0.16874,-0.52743 0.2498,-1.85134 0.15956,-2.60605 -0.0465,-0.38874 -0.11665,-0.74019 -0.15592,-0.78101 -0.0393,-0.0408 -0.0714,-0.15885 -0.0714,-0.26227 0,-0.27285 -0.4242,-1.1193 -0.7212,-1.4391 -0.28907,-0.31125 -0.71031,-0.55074 -0.9033,-0.51358 -0.0976,0.0188 -0.0336,0.12273 0.25915,0.42058 0.56014,0.56997 0.80314,1.09786 1.0149,2.20478 0.34053,1.78002 -0.16457,4.0316 -1.05151,4.68734 -0.13127,0.097 -0.23867,0.21056 -0.23867,0.25224 0,0.11261 0.28939,0.0917 0.54241,-0.0391 z m 22.83105,-0.4521 c 0.0964,-0.15175 0.0781,-3.77076 -0.0201,-3.98013 -0.0463,-0.0987 -0.24844,-0.31067 -0.44922,-0.47104 -0.3609,-0.28827 -0.48062,-0.39003 -1.07589,-0.91441 l -0.30479,-0.26849 -0.0205,-1.41119 c -0.0112,-0.77616 -0.0389,-1.49262 -0.0614,-1.59213 -0.0626,-0.27663 -0.46944,-0.40501 -1.28362,-0.40501 -0.64019,0 -0.71914,-0.0165 -0.84235,-0.17578 -0.36765,-0.47536 -1.11705,-1.13649 -1.48361,-1.30886 l -0.41016,-0.19287 v -0.63496 c 0,-0.86899 -0.10835,-1.37936 -0.43011,-2.02592 -0.29297,-0.58875 -0.65485,-1.0093 -1.17843,-1.36953 -0.62136,-0.42752 -1.02293,-0.52995 -2.58861,-0.66033 -0.8068,-0.0672 -1.78332,-0.15555 -2.17003,-0.19638 -0.38672,-0.0408 -1.08019,-0.0963 -1.54104,-0.12337 -0.47098,-0.0276 -0.86884,-0.0879 -0.90854,-0.13761 -0.0388,-0.0487 -0.10708,-0.28181 -0.15162,-0.51814 -0.0445,-0.23633 -0.16233,-0.72316 -0.26173,-1.08185 -0.15772,-0.56911 -0.21986,-0.68315 -0.48804,-0.89555 -0.3756,-0.29748 -0.65936,-0.46409 -1.21935,-0.71596 -0.85529,-0.38469 -0.81908,-0.34704 -0.83137,-0.86437 -0.006,-0.25614 -0.0149,-1.33527 -0.0195,-2.39807 l -0.008,-1.93236 -0.21738,-0.24329 c -0.1655,-0.18523 -0.3026,-0.25289 -0.5745,-0.28354 -0.42585,-0.048 -0.64569,0.0532 -0.85263,0.39263 -0.14032,0.23013 -0.1518,0.40734 -0.15207,2.34763 l -2.9e-4,2.09872 -0.21485,-0.0391 c -1.87762,-0.34197 -2.12802,-0.38093 -4.35547,-0.67768 -0.60758,-0.0809 -2.50711,-0.21118 -4.49218,-0.30799 l -0.97657,-0.0476 -0.0391,-3.01546 c -0.0327,-2.52094 -0.0583,-3.03966 -0.15625,-3.163 -0.25731,-0.32395 -0.43314,-0.41793 -0.78671,-0.4205 -0.28996,-0.002 -0.40735,0.0423 -0.625,0.23664 l -0.26797,0.23923 -0.0391,10.87405 c -0.0215,5.98072 -0.0668,10.64552 -0.10078,10.36623 -0.0627,-0.51581 -0.14113,-3.33397 -0.29252,-10.50782 -0.0462,-2.1914 -0.10851,-4.31835 -0.13836,-4.72656 l -0.0543,-0.74219 -0.25634,0.0118 c -0.77256,0.0355 -2.40969,1.25894 -3.3416,2.49716 l -0.4255,0.56535 v 8.44897 8.44897 l 0.91797,-0.0499 c 0.50488,-0.0274 1.33984,-0.0842 1.85547,-0.12619 1.31449,-0.10699 4.40649,-0.30141 5.6744,-0.35678 l 1.06503,-0.0465 0.0873,-0.29144 c 0.048,-0.16029 0.0878,-0.37525 0.0884,-0.47768 6.2e-4,-0.10244 0.0909,-0.53782 0.20058,-0.9675 0.10971,-0.42969 0.21783,-0.86914 0.24026,-0.97657 0.0224,-0.10742 0.12463,-0.37891 0.22708,-0.60332 0.10246,-0.22441 0.21019,-0.50566 0.23941,-0.625 0.0292,-0.11934 0.0771,-0.23457 0.10644,-0.25605 0.0293,-0.0215 0.14534,-0.19759 0.25781,-0.39134 0.58449,-1.00697 1.47857,-1.34185 2.3814,-0.89195 0.37542,0.18708 1.03341,0.84526 1.03341,1.03372 0,0.0442 0.0285,0.092 0.0634,0.10634 0.11952,0.0491 0.54844,1.51018 0.64981,2.21354 0.0557,0.38672 0.11065,1.57391 0.12203,2.63819 0.0142,1.32411 0.0491,1.96543 0.11055,2.03125 0.13193,0.14124 20.69704,0.10058 20.78702,-0.0411 z m -19.40604,-1.13643 c -0.17786,-0.0342 -0.21515,-0.25473 -0.21635,-1.27929 -8.5e-4,-0.72631 0.024,-0.93743 0.12171,-1.03516 0.11019,-0.1102 1.05075,-0.12277 9.18482,-0.12277 6.0973,0 9.11149,0.0265 9.21317,0.0809 0.1378,0.0737 0.15101,0.17185 0.14992,1.11328 -7.8e-4,0.56783 -0.0296,1.0772 -0.0644,1.13195 -0.0505,0.0795 -1.89203,0.10308 -9.16441,0.11719 -5.00568,0.01 -9.1567,0.007 -9.22449,-0.006 z m -10.66872,-4.44894 0.0216,-1.15234 0.35156,-0.12411 c 0.19336,-0.0683 0.4043,-0.14522 0.46875,-0.17102 0.0644,-0.0258 0.36328,-0.11717 0.66406,-0.20305 0.30079,-0.0859 0.88086,-0.2619 1.28907,-0.39116 1.76256,-0.55815 1.71875,-0.54698 1.71875,-0.43813 0,0.0569 -0.0288,0.11523 -0.064,0.12955 -0.11909,0.0485 -0.68997,0.96 -0.97485,1.55659 -0.15575,0.32617 -0.3811,0.89746 -0.50078,1.26953 l -0.2176,0.67649 h -1.3891 -1.38909 z m 15.84193,-3.18747 c 0,-3.6481 0.0143,-4.1333 0.12789,-4.35547 0.25159,-0.49184 0.58376,-0.82865 1.02148,-1.03572 0.48862,-0.23116 0.55332,-0.23201 3.10844,-0.0407 1.47957,0.11075 1.75165,0.18784 2.22504,0.63048 0.64261,0.60088 0.62653,0.47349 0.62653,4.96316 v 3.94373 h -3.55469 -3.55469 z m 1.12446,3.74749 c 0.0261,-0.068 0.0474,-1.99453 0.0474,-4.28125 0,-4.36596 -0.0105,-4.50129 -0.32706,-4.21481 -0.1334,0.12073 -0.14169,0.36754 -0.14169,4.21874 0,4.1497 0.0162,4.4009 0.28387,4.4009 0.0495,0 0.11137,-0.0556 0.13746,-0.12358 z m 1.32771,-0.13573 c 0.0251,-0.0937 0.0462,-2.01815 0.0468,-4.27654 10e-4,-4.32084 -0.0107,-4.47254 -0.33919,-4.34649 -0.11711,0.0449 -0.12849,0.43622 -0.12849,4.42025 0,4.47968 0.002,4.50991 0.28528,4.40611 0.0495,-0.0181 0.11051,-0.10963 0.13565,-0.20333 z m 2.50807,0.005 c 0.025,-0.13965 0.0354,-2.08203 0.0231,-4.31641 l -0.0224,-4.0625 -0.16859,-0.024 c -0.13008,-0.0185 -0.17935,0.0261 -0.21571,0.19531 -0.0704,0.32751 -0.0165,8.25053 0.0569,8.36387 0.11665,0.18022 0.28053,0.10185 0.32672,-0.15625 z m -1.2291,-4.15134 c 0.0144,-3.06267 -0.005,-4.31802 -0.0668,-4.39289 -0.0633,-0.0763 -0.12732,-0.0832 -0.23504,-0.0256 -0.14255,0.0763 -0.14805,0.23827 -0.14805,4.36034 0,2.35461 0.0249,4.30603 0.0554,4.33649 0.0305,0.0305 0.12714,0.0451 0.21485,0.0326 0.15804,-0.0226 0.15964,-0.0611 0.17967,-4.31089 z m 2.51886,0.22556 c 0,-4.35496 0.0139,-4.19192 -0.34517,-4.05414 -0.11042,0.0424 -0.12358,0.46589 -0.12358,3.97798 0,2.16181 0.0213,3.98618 0.0474,4.05414 0.0261,0.068 0.13155,0.12358 0.23438,0.12358 h 0.18695 z m 1.8443,2.96236 c -0.0261,-0.068 -0.0474,-0.50312 -0.0474,-0.967 0,-0.62073 0.0284,-0.86698 0.10753,-0.93266 0.0752,-0.0624 0.62166,-0.0829 1.81641,-0.0682 l 1.70887,0.0211 0.0218,1.03516 0.0218,1.03516 h -1.7908 c -1.56089,0 -1.79686,-0.0159 -1.8382,-0.12358 z m -12.66967,-0.29113 c -0.0216,-0.0562 -0.0293,-0.52203 -0.0171,-1.03515 l 0.0221,-0.93296 1.76785,-0.021 c 1.73093,-0.0205 1.76874,-0.0176 1.81016,0.14079 0.0544,0.20791 0.0553,1.70208 0.001,1.84321 -0.059,0.15386 -3.52523,0.15878 -3.5842,0.005 z m -12.2215,-10.4933 c 0,-7.53004 0.0196,-9.40734 0.0977,-9.34258 0.12512,0.10383 0.10507,18.76621 -0.0202,18.76621 -0.0508,0 -0.0775,-3.24425 -0.0775,-9.42363 z m 1.14583,3.9028 c -0.0286,-0.0286 -0.0521,-0.76266 -0.0521,-1.63115 v -1.57906 l 0.21485,-0.0807 c 0.51236,-0.19249 2.51799,-0.79762 2.6436,-0.79762 0.0564,0 0.13333,0.055 0.17096,0.12226 0.0662,0.11837 0.0458,2.79491 -0.0239,3.12899 -0.0253,0.12147 -0.13319,0.19096 -0.40672,0.26204 -0.20473,0.0532 -0.63591,0.17736 -0.95817,0.27592 -0.53412,0.16334 -1.32364,0.35141 -1.4752,0.35141 -0.0337,0 -0.0847,-0.0234 -0.11334,-0.0521 z m 4.45003,-1.17497 c -0.0269,-0.0269 -0.0482,-0.66715 -0.0472,-1.42269 0.002,-1.23319 0.0171,-1.39367 0.15175,-1.56901 l 0.15002,-0.19531 4.35996,-0.0223 c 2.39798,-0.0122 4.4381,-0.003 4.53359,0.0205 0.38297,0.0943 0.49044,0.32869 0.49044,1.06971 0,0.81974 0.15433,0.74284 -1.60156,0.7981 -1.90023,0.0598 -3.63422,0.2591 -5.39063,0.61958 -0.30078,0.0617 -0.75781,0.17239 -1.01562,0.2459 -0.25781,0.0735 -0.59222,0.16405 -0.74312,0.2012 -0.1509,0.0371 -0.40132,0.12058 -0.55648,0.18541 -0.15517,0.0648 -0.30416,0.0958 -0.3311,0.0689 z m 6.325,-6.00021 c -0.0557,-0.22191 -0.0455,-3.46361 0.0114,-3.61213 0.12562,-0.3281 0.1771,0.21109 0.1771,1.85502 0,1.70595 -0.0603,2.26795 -0.18851,1.75711 z m -30.47555,19.79959 c 0.53477,-0.1027 2.67374,-0.4374 3.4375,-0.5379 0.34375,-0.0452 0.92383,-0.13117 1.28906,-0.19099 0.36524,-0.0598 0.93767,-0.15194 1.27207,-0.20472 0.44102,-0.0696 0.62885,-0.13493 0.68392,-0.23782 0.0482,-0.0901 0.0687,-3.42875 0.0561,-9.14921 -0.0186,-8.45478 -0.0281,-9.00896 -0.15452,-9.0333 -0.0741,-0.0143 -0.26743,0.0764 -0.42969,0.20158 -0.40681,0.31372 -1.97481,1.43418 -3.0311,2.16597 -0.69612,0.48227 -1.7263,1.21001 -2.87539,2.03125 -0.48098,0.34375 -1.01477,0.72056 -1.18621,0.83736 -0.51071,0.34793 -1.39868,0.9819 -1.49723,1.06895 -0.0505,0.0446 -0.36689,0.26587 -0.70313,0.49174 -0.33624,0.22588 -0.62892,0.43093 -0.6504,0.45567 -0.0846,0.0974 -0.79348,0.54472 -0.86329,0.54472 -0.0408,0 -0.0742,0.0314 -0.0742,0.0698 0,0.0384 -0.0535,0.0903 -0.119,0.11543 -0.17416,0.0668 -0.0204,-0.19164 0.20307,-0.34145 0.0962,-0.0645 0.31873,-0.24678 0.4946,-0.40517 0.17587,-0.1584 0.40766,-0.36064 0.51508,-0.44944 0.10742,-0.0888 0.30078,-0.24907 0.42968,-0.35617 0.29227,-0.24283 1.60984,-1.37477 2.03806,-1.75092 0.17562,-0.15427 0.47217,-0.40353 0.659,-0.55392 0.18683,-0.1504 0.41908,-0.34375 0.51611,-0.42969 0.097,-0.0859 0.32519,-0.2793 0.50703,-0.42969 0.18185,-0.15039 0.41645,-0.35158 0.52135,-0.44708 0.1049,-0.0955 0.3419,-0.28887 0.52667,-0.42969 0.53725,-0.40947 0.60632,-0.58037 0.51114,-1.26468 -0.11535,-0.82932 -0.18345,-5.51401 -0.10629,-7.31167 0.062,-1.44493 0.0227,-1.95313 -0.15113,-1.95313 -0.0336,0 -0.061,-0.0533 -0.061,-0.11837 0,-0.0651 -0.10547,-0.30525 -0.23438,-0.53366 -0.38522,-0.68259 -0.31365,-0.90438 0.3293,-1.0204 0.15962,-0.0288 0.30661,-0.0789 0.32664,-0.1113 0.0425,-0.0688 -0.0577,-1.61734 -0.22325,-3.45064 -0.064,-0.70899 -0.15114,-1.93946 -0.19356,-2.73438 -0.0424,-0.79492 -0.11205,-1.74414 -0.15475,-2.10937 -0.0427,-0.36524 -0.0977,-0.98047 -0.12232,-1.36719 -0.0246,-0.38672 -0.078,-1.00196 -0.11866,-1.36719 -0.0407,-0.36524 -0.12963,-1.61328 -0.19768,-2.77344 -0.13385,-2.28204 -0.23949,-3.18749 -0.36693,-3.14501 -0.0444,0.0148 -0.22131,0.28904 -0.39307,0.6094 -0.33571,0.62617 -1.18957,1.94773 -1.45667,2.25459 -0.0899,0.10326 -0.16342,0.21089 -0.16342,0.23918 0,0.0283 -0.062,0.11959 -0.13772,0.20289 -0.0757,0.0833 -0.36579,0.4327 -0.64453,0.77645 -0.27875,0.34375 -0.66811,0.80078 -0.86526,1.01562 -0.19715,0.21485 -0.51356,0.56582 -0.70313,0.77993 -0.43497,0.49131 -2.25396,2.30899 -2.77676,2.77476 -0.68043,0.60623 -1.37489,1.20478 -1.58625,1.36719 -0.11184,0.0859 -0.273,0.21611 -0.35813,0.28928 -0.25995,0.22341 -1.15919,0.93761 -1.72679,1.37145 -0.29555,0.2259 -0.57252,0.43799 -0.61549,0.47131 -0.043,0.0333 -0.25391,0.19075 -0.46875,0.34983 -0.21484,0.15909 -0.42854,0.32068 -0.47487,0.35909 -0.0463,0.0384 -0.2253,0.15888 -0.39769,0.2677 -0.17238,0.10882 -0.36298,0.24505 -0.42356,0.30273 -0.0606,0.0577 -0.532,0.38452 -1.04763,0.72632 -0.515625,0.34181 -0.983957,0.66686 -1.040737,0.72235 -0.05678,0.0555 -0.15346,0.10088 -0.214844,0.10088 -0.06138,0 -0.111607,0.0352 -0.111607,0.0781 0,0.043 -0.04395,0.079 -0.09766,0.0801 -0.05371,10e-4 -0.264649,0.12445 -0.46875,0.27419 -0.441007,0.32356 -0.478224,0.55057 -0.183537,1.11955 0.103156,0.19917 0.371289,0.74885 0.595851,1.22151 0.224561,0.47265 0.717101,1.49218 1.094533,2.26562 0.377431,0.77344 0.850551,1.82813 1.051381,2.34375 0.20082,0.51563 0.43248,1.10222 0.51478,1.30355 0.0823,0.20132 0.14965,0.41812 0.14965,0.48177 0,0.0636 0.0264,0.12744 0.0586,0.14177 0.0322,0.0143 0.12481,0.2194 0.20574,0.45572 0.1601,0.46754 0.33281,0.89886 0.44536,1.11223 0.0394,0.0746 0.0716,0.17476 0.0716,0.22256 0,0.0478 0.0492,0.19769 0.10944,0.33309 0.19103,0.42973 0.82806,2.05419 0.82806,2.11162 0,0.0303 0.10754,0.29098 0.23898,0.57923 0.30057,0.65913 0.42611,0.94105 0.52908,1.18815 0.0448,0.10742 0.1891,0.43507 0.32073,0.72811 0.13163,0.29303 0.23933,0.55139 0.23933,0.57413 0,0.0475 0.2128,0.546 0.31907,0.74748 0.0394,0.0746 0.072,0.18008 0.0725,0.23438 5.5e-4,0.0543 0.1009,0.29568 0.22302,0.53642 0.12211,0.24075 0.24731,0.53844 0.2782,0.66154 0.0309,0.12311 0.13909,0.40075 0.24043,0.61698 0.10134,0.21623 0.29317,0.6744 0.42629,1.01815 0.28547,0.73715 0.37039,0.93993 0.51798,1.2368 0.0605,0.12164 0.10997,0.25695 0.10997,0.30069 0,0.0437 0.0565,0.20788 0.12563,0.36476 0.0691,0.15689 0.17457,0.3995 0.23438,0.53915 0.0598,0.13965 0.15767,0.36817 0.21747,0.50782 0.0598,0.13964 0.16528,0.38226 0.23438,0.53915 0.0691,0.15688 0.12564,0.30533 0.12564,0.32989 0,0.13808 1.68062,3.58966 1.82184,3.74162 0.0507,0.0546 0.15996,0.22163 0.24275,0.37123 0.38025,0.68708 1.19506,1.69978 2.03096,2.52421 l 0.54086,0.53344 0.47476,-0.0496 c 0.26112,-0.0273 0.65054,-0.0834 0.86539,-0.12463 z m 26.34415,-2.74347 c 0.0365,-0.51021 -0.0983,-0.80542 -0.36759,-0.80542 -0.27769,0 -0.40685,0.29511 -0.35904,0.82031 0.0291,0.31909 0.0838,0.46588 0.21254,0.5703 0.16765,0.13593 0.17862,0.13543 0.32894,-0.0149 0.10518,-0.10518 0.16509,-0.28974 0.18515,-0.5703 z m -23.8186,-19.94605 c -10e-4,-0.94531 -0.0287,-1.91211 -0.0613,-2.14843 -0.035,-0.2529 -0.0599,0.59889 -0.0606,2.07031 -7.1e-4,1.48842 0.0241,2.35775 0.0613,2.14844 0.0344,-0.19336 0.0617,-1.125 0.0606,-2.07032 z"
       id="path836"
       sodipodi:nodetypes="csccsssssssssssssssssssssssssccsscssscssssscsccsssscsscscssssscsscssssssssssscsssssssssscccssscssssscssssssssssscccccscssssscccccscsssscsssssssssssccsscssscsssscscssssscsscccssssssscscssscssscccscscsssssccsssscccsssscscscsccscsccscsscccccscssssssccsssscccccsssscsccccccsssscssccccscsssscccssssssssccsssccsscsscsssccsscssssssscssssccccsssccccscccscsssscssscsssssccscccsssscsccscssscsssssscsssssssssssssssssssssssssssssscssssssssssssscsssssssscssssssssscscsscssccsssssssssssssscsccsscssssccssc" />
  </g>
</svg>
