<?xml version="1.0" encoding="UTF-8" standalone="no"?>
<!-- Created with Inkscape (http://www.inkscape.org/) -->

<svg
   width="100mm"
   height="104.1625mm"
   viewBox="0 0 100 104.1625"
   version="1.1"
   id="svg5"
   inkscape:version="1.1.1 (3bf5ae0d25, 2021-09-20)"
   sodipodi:docname="ok_logo.svg"
   xmlns:inkscape="http://www.inkscape.org/namespaces/inkscape"
   xmlns:sodipodi="http://sodipodi.sourceforge.net/DTD/sodipodi-0.dtd"
   xmlns="http://www.w3.org/2000/svg"
   xmlns:svg="http://www.w3.org/2000/svg">
  <sodipodi:namedview
     id="namedview7"
     pagecolor="#ffffff"
     bordercolor="#666666"
     borderopacity="1.0"
     inkscape:pageshadow="2"
     inkscape:pageopacity="0.0"
     inkscape:pagecheckerboard="0"
     inkscape:document-units="mm"
     showgrid="false"
     fit-margin-top="0"
     fit-margin-left="0"
     fit-margin-right="0"
     fit-margin-bottom="0"
     inkscape:zoom="0.72337262"
     inkscape:cx="396.75265"
     inkscape:cy="119.57876"
     inkscape:window-width="1920"
     inkscape:window-height="1001"
     inkscape:window-x="2391"
     inkscape:window-y="-9"
     inkscape:window-maximized="1"
     inkscape:current-layer="layer1" />
  <defs
     id="defs2" />
  <g
     inkscape:label="Capa 1"
     inkscape:groupmode="layer"
     id="layer1"
     transform="translate(4.16e-5,2.05333e-5)">
    <g
       transform="matrix(4.1666667,0,0,4.1666667,-3133.3334,-1600.0042)"
       id="g934">
      <path
         d="m 763.999,385.466 c 2.685,0 5.367,1.089 7.459,3.265 4.182,4.36 4.182,11.184 0,15.538 -2.092,2.179 -4.776,3.267 -7.46,3.267 -2.684,0 -5.366,-1.088 -7.456,-3.267 -4.182,-4.354 -4.182,-11.182 0,-15.538 2.092,-2.176 4.772,-3.265 7.457,-3.265 z m 0,-1.465 c -3.16,0 -6.164,1.312 -8.451,3.695 -2.287,2.383 -3.548,5.511 -3.548,8.805 0,3.292 1.261,6.421 3.548,8.804 2.287,2.382 5.291,3.695 8.451,3.695 3.162,0 6.165,-1.313 8.453,-3.695 2.287,-2.383 3.548,-5.512 3.548,-8.804 0,-3.294 -1.261,-6.422 -3.548,-8.805 -2.288,-2.383 -5.291,-3.695 -8.453,-3.695 z"
         fill="#37bc9b"
         fill-rule="evenodd"
         id="path930" />
      <path
         d="m 767.765,393.396 c 0.174,0 0.348,0.068 0.479,0.205 0.264,0.271 0.264,0.713 0,0.985 l -4.685,4.811 c -0.134,0.139 -0.314,0.209 -0.494,0.209 -0.175,0 -0.347,-0.066 -0.475,-0.198 l -2.736,-2.793 c -0.301,-0.263 -0.319,-0.735 -0.04,-1.022 0.134,-0.138 0.308,-0.207 0.482,-0.207 0.189,0 0.379,0.083 0.513,0.244 l 1.725,1.773 c 0.011,0.016 0.026,0.027 0.04,0.038 0,0.004 0.004,0.004 0.007,0.008 0.133,0.135 0.306,0.203 0.478,0.203 0.174,0 0.348,-0.068 0.482,-0.203 l 3.745,-3.848 c 0.132,-0.137 0.305,-0.205 0.479,-0.205 z m -0.003,-1.395 c -0.521,0 -1.039,0.203 -1.435,0.61 h -0.003 l -3.268,3.358 -1.288,-1.324 c -0.403,-0.454 -0.954,-0.682 -1.507,-0.682 -0.52,0 -1.04,0.202 -1.439,0.612 -0.821,0.843 -0.788,2.222 0.073,3.026 l 2.735,2.796 c 0.377,0.384 0.885,0.602 1.42,0.602 0.005,0 0.008,0 0.013,0 0.543,0 1.068,-0.223 1.455,-0.617 l 4.685,-4.811 c 0.796,-0.818 0.796,-2.141 0,-2.957 -0.398,-0.408 -0.92,-0.613 -1.441,-0.613 z"
         fill="#37bc9b"
         fill-rule="evenodd"
         id="path932" />
    </g>
  </g>
</svg>
