<?xml version="1.0" encoding="UTF-8" standalone="no"?>
<!-- Created with Inkscape (http://www.inkscape.org/) -->

<svg
   width="100mm"
   height="101.72739mm"
   viewBox="0 0 100 101.72739"
   version="1.1"
   id="svg5"
   inkscape:version="1.1.1 (3bf5ae0d25, 2021-09-20)"
   sodipodi:docname="look_logo.svg"
   xmlns:inkscape="http://www.inkscape.org/namespaces/inkscape"
   xmlns:sodipodi="http://sodipodi.sourceforge.net/DTD/sodipodi-0.dtd"
   xmlns="http://www.w3.org/2000/svg"
   xmlns:svg="http://www.w3.org/2000/svg">
  <sodipodi:namedview
     id="namedview7"
     pagecolor="#ffffff"
     bordercolor="#666666"
     borderopacity="1.0"
     inkscape:pageshadow="2"
     inkscape:pageopacity="0.0"
     inkscape:pagecheckerboard="0"
     inkscape:document-units="mm"
     showgrid="false"
     fit-margin-top="0"
     fit-margin-left="0"
     fit-margin-right="0"
     fit-margin-bottom="0"
     inkscape:zoom="0.72337262"
     inkscape:cx="396.75265"
     inkscape:cy="8.9856871"
     inkscape:window-width="1920"
     inkscape:window-height="1001"
     inkscape:window-x="2391"
     inkscape:window-y="-9"
     inkscape:window-maximized="1"
     inkscape:current-layer="layer1" />
  <defs
     id="defs2" />
  <g
     inkscape:label="Capa 1"
     inkscape:groupmode="layer"
     id="layer1"
     transform="translate(-3.7960192e-5)">
    <g
       transform="matrix(2.7493891,0,0,2.7493891,-2083.2696,-709.34238)"
       id="g828">
      <path
         d="m 772.027,260.412 c 1.547,0 3.087,0.292 4.513,0.867 6.482,2.915 9.094,10.751 5.673,16.855 -0.091,0.182 -0.091,0.182 -0.091,0.272 -0.452,0.91 -1.08,1.732 -1.801,2.368 -0.451,0.364 -0.811,0.728 -1.08,0.911 -0.272,0.092 -0.18,0.092 -0.272,0.274 -1.529,1.093 -3.149,1.912 -5.041,2.276 -0.655,0.107 -1.3,0.159 -1.938,0.159 -6.482,0 -11.929,-5.292 -11.929,-12.092 0,-3.916 2.072,-7.744 5.224,-9.837 2.012,-1.377 4.384,-2.053 6.742,-2.053 z m 11.267,20.362 7.742,7.836 c 0.451,0.454 0.632,0.911 0.632,1.639 0,1.275 -0.992,2.186 -2.072,2.186 -0.632,0 -1.172,-0.274 -1.621,-0.728 l -7.745,-7.836 c 0.091,-0.09 1.803,-1.276 3.064,-3.097 z M 771.856,258 c -4.77,0 -9.183,2.55 -11.704,6.376 -2.7,4.1 -3.152,9.201 -1.351,13.665 2.4,5.578 7.79,8.793 13.206,8.793 2.107,0 4.213,-0.485 6.154,-1.503 l 8.282,8.287 c 0.817,0.89 2.069,1.382 3.333,1.382 0.551,0 1.103,-0.095 1.62,-0.286 2.881,-1.55 3.601,-5.468 1.44,-7.654 l -8.193,-8.29 c 1.892,-3.826 1.892,-8.198 0.271,-12.023 C 782.842,261.554 777.62,258 771.856,258 Z"
         fill="#f28617"
         fill-rule="evenodd"
         id="path824" />
      <path
         d="m 772.499,265.406 c 3.982,0 7.146,3.186 7.146,7.097 0,3.824 -3.075,7.189 -7.146,7.189 -3.888,0 -7.055,-3.183 -7.055,-7.189 0,-3.911 3.167,-7.097 7.055,-7.097 z M 772.53,263 c -1.26,0 -2.53,0.234 -3.738,0.676 -3.348,1.456 -5.792,4.916 -5.792,8.737 0,3.186 1.631,6.187 4.253,8.007 1.585,1.08 3.342,1.58 5.093,1.58 1.35,0 2.694,-0.298 3.954,-0.852 3.437,-1.545 5.608,-5.003 5.608,-8.735 0.089,-3.004 -1.447,-6.005 -4.072,-7.827 C 776.223,263.505 774.385,263 772.53,263 Z"
         fill="#f28617"
         fill-rule="evenodd"
         id="path826" />
    </g>
  </g>
</svg>
