<?xml version="1.0" encoding="UTF-8" standalone="no"?>
<!-- Created with Inkscape (http://www.inkscape.org/) -->

<svg
   width="100mm"
   height="97.221992mm"
   viewBox="0 0 100 97.221992"
   version="1.1"
   id="svg5"
   inkscape:version="1.1.1 (3bf5ae0d25, 2021-09-20)"
   sodipodi:docname="tipo.svg"
   xmlns:inkscape="http://www.inkscape.org/namespaces/inkscape"
   xmlns:sodipodi="http://sodipodi.sourceforge.net/DTD/sodipodi-0.dtd"
   xmlns="http://www.w3.org/2000/svg"
   xmlns:svg="http://www.w3.org/2000/svg">
  <sodipodi:namedview
     id="namedview7"
     pagecolor="#ffffff"
     bordercolor="#666666"
     borderopacity="1.0"
     inkscape:pageshadow="2"
     inkscape:pageopacity="0.0"
     inkscape:pagecheckerboard="0"
     inkscape:document-units="mm"
     showgrid="false"
     fit-margin-top="0"
     fit-margin-left="0"
     fit-margin-right="0"
     fit-margin-bottom="0"
     inkscape:zoom="0.72337262"
     inkscape:cx="396.75265"
     inkscape:cy="230.17183"
     inkscape:window-width="1920"
     inkscape:window-height="1001"
     inkscape:window-x="-9"
     inkscape:window-y="-9"
     inkscape:window-maximized="1"
     inkscape:current-layer="layer1" />
  <defs
     id="defs2" />
  <g
     inkscape:label="Capa 1"
     inkscape:groupmode="layer"
     id="layer1"
     transform="translate(2.32721e-5,-2.84279e-5)">
    <g
       transform="matrix(2.7780093,0,0,2.7780093,-1775.1563,-1133.4361)"
       id="g1252">
      <path
         d="m 654.883,408.003 c -0.48,0 -0.865,0.375 -0.962,0.843 l -0.48,1.784 c -1.638,0.28 -3.275,1.03 -4.815,1.876 l -1.539,-0.846 c -0.147,-0.071 -0.321,-0.101 -0.505,-0.101 -0.293,0 -0.604,0.08 -0.843,0.197 l -2.887,2.814 c -0.385,0.375 -0.385,0.846 -0.094,1.313 l 0.864,1.501 c -0.962,1.409 -1.634,3.098 -1.924,4.691 l -1.83,0.471 c -0.48,0.187 -0.865,0.467 -0.865,0.938 v 4.128 c 0,0.47 0.385,0.845 0.865,0.938 l 1.83,0.47 c 0.192,1.031 0.577,2.156 1.06,3.19 0.837,-0.819 4.927,-4.893 4.921,-4.893 v 0 c 0,0 -0.006,0.006 -0.015,0.015 0,-0.096 -0.095,-1.314 -0.095,-1.597 -0.098,-5.161 4.234,-9.289 9.336,-9.289 5.197,0 9.431,4.128 9.431,9.197 0,4.691 -3.657,8.631 -8.661,9.006 -0.143,0 -0.458,0.024 -0.892,0.024 -0.431,0 -0.984,-0.024 -1.61,-0.116 l -5.007,4.783 c 1.158,0.47 2.12,0.846 3.275,1.033 l 0.48,1.781 c 0.097,0.471 0.482,0.846 0.962,0.846 h 4.234 c 0.483,0 0.868,-0.375 0.965,-0.846 l 0.48,-1.781 c 1.638,-0.283 3.272,-1.033 4.812,-1.876 l 1.539,0.843 c 0.147,0.071 0.324,0.104 0.505,0.104 0.296,0 0.607,-0.08 0.843,-0.197 l 2.89,-2.814 c 0.385,-0.375 0.385,-0.846 0.094,-1.313 l -0.769,-1.504 c 0.962,-1.406 1.539,-3.095 1.924,-4.691 l 1.732,-0.468 c 0.483,-0.187 0.868,-0.47 0.868,-0.938 v -4.131 c -0.098,-0.375 -0.385,-0.75 -0.868,-0.842 l -1.827,-0.471 c -0.29,-1.593 -1.06,-3.094 -1.924,-4.691 l 0.864,-1.501 c 0.291,-0.375 0.098,-0.938 -0.094,-1.313 l -2.89,-2.814 c -0.211,-0.155 -0.452,-0.227 -0.706,-0.227 -0.208,0 -0.425,0.048 -0.642,0.131 l -1.539,0.846 c -1.442,-0.938 -3.174,-1.596 -4.812,-1.876 l -0.48,-1.784 c -0.097,-0.468 -0.482,-0.843 -0.965,-0.843 z"
         fill="#5f7d95"
         fill-rule="evenodd"
         id="path1248" />
      <path
         d="m 656.951,418 c -3.657,0 -6.616,2.603 -7.188,5.984 -0.287,1.344 -0.19,2.591 0.191,3.841 l -9.715,9.892 c -1.236,1.152 -1.236,3.167 0,4.417 0.575,0.576 1.336,0.863 2.119,0.863 0.786,0 1.596,-0.287 2.264,-0.863 l 9.902,-9.989 c 0.762,0.289 1.596,0.432 2.451,0.432 0.858,0 1.738,-0.143 2.596,-0.432 3.144,-1.055 5.429,-4.802 4.286,-8.74 -0.096,-0.384 -0.287,-0.671 -0.667,-0.768 -0.094,-0.022 -0.185,-0.034 -0.27,-0.034 -0.253,0 -0.468,0.107 -0.683,0.323 l -2.378,2.402 c -0.43,0.384 -0.977,0.577 -1.515,0.577 -0.535,0 -1.058,-0.193 -1.438,-0.577 -0.859,-0.865 -0.859,-2.21 0,-3.075 l 2.378,-2.4 c 0.191,-0.192 0.287,-0.576 0.191,-0.96 -0.094,-0.289 -0.381,-0.576 -0.665,-0.674 C 658.175,418.07 657.555,418 656.951,418 Z"
         fill="#5f7d95"
         fill-rule="evenodd"
         id="path1250" />
    </g>
  </g>
</svg>
