<?xml version="1.0" encoding="UTF-8" standalone="no"?>
<!-- Created with Inkscape (http://www.inkscape.org/) -->

<svg
   width="100mm"
   height="114.28639mm"
   viewBox="0 0 100 114.28639"
   version="1.1"
   id="svg5"
   inkscape:version="1.1.1 (3bf5ae0d25, 2021-09-20)"
   sodipodi:docname="ubicacion.svg"
   xmlns:inkscape="http://www.inkscape.org/namespaces/inkscape"
   xmlns:sodipodi="http://sodipodi.sourceforge.net/DTD/sodipodi-0.dtd"
   xmlns="http://www.w3.org/2000/svg"
   xmlns:svg="http://www.w3.org/2000/svg">
  <sodipodi:namedview
     id="namedview7"
     pagecolor="#ffffff"
     bordercolor="#666666"
     borderopacity="1.0"
     inkscape:pageshadow="2"
     inkscape:pageopacity="0.0"
     inkscape:pagecheckerboard="0"
     inkscape:document-units="mm"
     showgrid="false"
     fit-margin-top="0"
     fit-margin-left="0"
     fit-margin-right="0"
     fit-margin-bottom="0"
     inkscape:zoom="0.72337262"
     inkscape:cx="396.75265"
     inkscape:cy="230.17183"
     inkscape:window-width="1920"
     inkscape:window-height="1001"
     inkscape:window-x="-9"
     inkscape:window-y="-9"
     inkscape:window-maximized="1"
     inkscape:current-layer="layer1" />
  <defs
     id="defs2" />
  <g
     inkscape:label="Capa 1"
     inkscape:groupmode="layer"
     id="layer1"
     transform="translate(2.5000001e-6,-1.9e-5)">
    <g
       transform="matrix(4.7621315,0,0,4.7621315,-880.99433,-1076.2417)"
       id="g828">
      <path
         d="m 196,230.328 c 1.469,0 2.795,0.876 3.358,2.227 0.562,1.346 0.251,2.897 -0.792,3.928 -0.695,0.692 -1.623,1.059 -2.57,1.059 -0.467,0 -0.939,-0.09 -1.388,-0.275 -1.361,-0.558 -2.246,-1.873 -2.246,-3.332 0.004,-1.992 1.629,-3.603 3.638,-3.607 z M 196,226 c -4.362,0 -7.999,3.485 -7.999,7.935 0,1.693 0.511,3.202 1.496,4.617 l 5.89,9.112 c 0.142,0.224 0.376,0.335 0.61,0.335 0.236,0 0.47,-0.111 0.612,-0.335 l 5.913,-9.143 c 0.962,-1.342 1.477,-2.943 1.473,-4.586 0,-4.376 -3.586,-7.935 -7.995,-7.935 z"
         fill="#5f7d95"
         fill-rule="evenodd"
         id="path824" />
      <path
         d="m 190.021,242.001 c -3.106,0.738 -5.021,2.085 -5.021,3.694 0,2.797 5.41,4.304 10.502,4.304 5.088,0 10.497,-1.507 10.497,-4.304 0,-1.609 -1.918,-2.96 -5.029,-3.694 l -3.523,5.645 c -0.455,0.728 -1.201,1.093 -1.948,1.093 -0.746,0 -1.492,-0.365 -1.946,-1.093 z"
         fill="#5f7d95"
         fill-rule="evenodd"
         id="path826" />
    </g>
  </g>
</svg>
