<?xml version="1.0" encoding="UTF-8" standalone="no"?>
<!-- Created with Inkscape (http://www.inkscape.org/) -->

<svg
   width="100.00058mm"
   height="54.431mm"
   viewBox="0 0 100.00058 54.431"
   version="1.1"
   id="svg5"
   inkscape:version="1.1.1 (3bf5ae0d25, 2021-09-20)"
   sodipodi:docname="ver.svg"
   xmlns:inkscape="http://www.inkscape.org/namespaces/inkscape"
   xmlns:sodipodi="http://sodipodi.sourceforge.net/DTD/sodipodi-0.dtd"
   xmlns="http://www.w3.org/2000/svg"
   xmlns:svg="http://www.w3.org/2000/svg">
  <sodipodi:namedview
     id="namedview7"
     pagecolor="#ffffff"
     bordercolor="#666666"
     borderopacity="1.0"
     inkscape:pageshadow="2"
     inkscape:pageopacity="0.0"
     inkscape:pagecheckerboard="0"
     inkscape:document-units="mm"
     showgrid="false"
     fit-margin-top="0"
     fit-margin-left="0"
     fit-margin-right="0"
     fit-margin-bottom="0"
     inkscape:zoom="0.72337262"
     inkscape:cx="396.75265"
     inkscape:cy="230.17183"
     inkscape:window-width="1920"
     inkscape:window-height="1001"
     inkscape:window-x="-9"
     inkscape:window-y="-9"
     inkscape:window-maximized="1"
     inkscape:current-layer="layer1" />
  <defs
     id="defs2" />
  <g
     inkscape:label="Capa 1"
     inkscape:groupmode="layer"
     id="layer1"
     transform="translate(7.526625e-6,-2.45221e-5)">
    <g
       transform="matrix(4.1873221,0,0,4.1873221,-892.14562,-971.46289)"
       id="g926">
      <path
         d="m 225.004,233.443 c 0.631,0 1.265,0.125 1.871,0.383 1.828,0.786 3.023,2.628 3.023,4.673 -0.004,2.792 -2.195,5.052 -4.897,5.056 -1.981,0 -3.768,-1.232 -4.526,-3.124 -0.758,-1.886 -0.339,-4.063 1.06,-5.507 0.939,-0.967 2.193,-1.481 3.469,-1.481 z m -0.003,-1.442 c -6.422,0 -11.554,5.77 -11.766,6.016 -0.235,0.273 -0.235,0.689 0,0.963 0.212,0.246 5.344,6.02 11.766,6.02 6.423,0 11.55,-5.774 11.764,-6.02 0.234,-0.274 0.234,-0.69 0,-0.963 -0.214,-0.246 -5.341,-6.016 -11.764,-6.016 z"
         fill="#5f7d95"
         fill-rule="evenodd"
         id="path922" />
      <path
         d="m 225.638,235 c -1.321,0 -2.518,0.786 -3.074,2.016 -0.563,1.237 -0.374,2.692 0.475,3.734 0.657,0.806 1.617,1.25 2.607,1.25 0.296,0 0.595,-0.04 0.889,-0.122 1.281,-0.358 2.24,-1.444 2.465,-2.79 v 0 c -0.219,0.074 -0.435,0.107 -0.645,0.107 -1.104,0 -2.02,-0.939 -2.02,-2.097 0,-0.676 0.319,-1.313 0.857,-1.706 -0.475,-0.253 -1.002,-0.388 -1.536,-0.392 -0.006,0 -0.012,0 -0.018,0 z"
         fill="#5f7d95"
         fill-rule="evenodd"
         id="path924" />
    </g>
  </g>
</svg>
