<?xml version="1.0" encoding="UTF-8" standalone="no"?>
<!-- Created with Inkscape (http://www.inkscape.org/) -->

<svg
   width="100mm"
   height="103.08971mm"
   viewBox="0 0 100 103.08972"
   version="1.1"
   id="svg5"
   inkscape:version="1.1.1 (3bf5ae0d25, 2021-09-20)"
   sodipodi:docname="write_logo.svg"
   xmlns:inkscape="http://www.inkscape.org/namespaces/inkscape"
   xmlns:sodipodi="http://sodipodi.sourceforge.net/DTD/sodipodi-0.dtd"
   xmlns="http://www.w3.org/2000/svg"
   xmlns:svg="http://www.w3.org/2000/svg">
  <sodipodi:namedview
     id="namedview7"
     pagecolor="#ffffff"
     bordercolor="#666666"
     borderopacity="1.0"
     inkscape:pageshadow="2"
     inkscape:pageopacity="0.0"
     inkscape:pagecheckerboard="0"
     inkscape:document-units="mm"
     showgrid="false"
     fit-margin-top="0"
     fit-margin-left="0"
     fit-margin-right="0"
     fit-margin-bottom="0"
     inkscape:zoom="0.72337262"
     inkscape:cx="396.75265"
     inkscape:cy="8.9856871"
     inkscape:window-width="1920"
     inkscape:window-height="1001"
     inkscape:window-x="2391"
     inkscape:window-y="-9"
     inkscape:window-maximized="1"
     inkscape:current-layer="layer1" />
  <defs
     id="defs2" />
  <g
     inkscape:label="Capa 1"
     inkscape:groupmode="layer"
     id="layer1"
     transform="translate(-9.8288526e-5)">
    <g
       transform="matrix(2.7866603,0,0,2.7866603,-1755.9073,-490.46057)"
       id="g928">
      <path
         d="m 659.965,178.557 c 1.374,0 2.723,0.818 3.272,2.218 0.534,1.372 0.266,2.833 -0.713,4.019 l -0.356,0.276 -4.992,-5.118 0.356,-0.365 c 0.69,-0.705 1.564,-1.03 2.433,-1.03 z m -4.48,2.949 5.079,5.208 -8.911,9.133 -5.08,-5.208 z m -10.515,10.87 4.988,5.208 -8.461,8.678 -4.992,-5.208 z m -9.266,11.236 3.473,3.563 -4.276,0.731 z m 16.248,-27.609 c -0.902,0 -1.815,0.342 -2.528,1.026 l -6.502,6.579 c -0.447,0.455 -0.447,1.279 0,1.734 0.221,0.229 0.535,0.342 0.846,0.342 0.311,0 0.622,-0.113 0.845,-0.342 l 6.417,-6.669 c 0.221,-0.226 0.535,-0.342 0.846,-0.342 0.311,0 0.622,0.116 0.846,0.342 l 1.247,1.279 -9.712,9.957 -10.156,10.415 c -0.091,0.089 -0.178,0.272 -0.269,0.548 0,0.092 0.091,-0.459 -1.335,7.947 l -2.05,2.102 c -0.447,0.455 -0.447,1.279 0,1.734 0.223,0.229 0.534,0.342 0.845,0.342 0.312,0 0.626,-0.113 0.846,-0.342 l 1.963,-2.099 c 0.178,0 7.752,-1.372 7.752,-1.372 0.178,0 0.356,-0.092 0.534,-0.182 l 21.919,-22.564 c 1.157,-1.096 1.691,-2.557 1.691,-4.201 -0.088,-3.381 -2.672,-6.028 -5.88,-6.028 -1.603,0 -3.029,0.548 -4.188,1.734 l -0.266,0.275 -1.247,-1.189 c -0.671,-0.684 -1.561,-1.026 -2.464,-1.026 z"
         fill="#fff"
         fill-rule="evenodd"
         id="path926" />
    </g>
  </g>
</svg>
